<?xml version="1.0" ?><!DOCTYPE svg  PUBLIC '-//W3C//DTD SVG 1.1//EN'  'http://www.w3.org/Graphics/SVG/1.1/DTD/svg11.dtd'><svg style="enable-background:new 0 0 192 192;" version="1.1" viewBox="0 0 192 192" xml:space="preserve" xmlns="http://www.w3.org/2000/svg" xmlns:xlink="http://www.w3.org/1999/xlink"><style type="text/css">
	.st0{clip-path:url(#SVGID_2_);}
	.st1{fill:none;stroke:#000000;stroke-width:0.25;stroke-miterlimit:10;}
	.st2{opacity:0.4;}
	.st3{clip-path:url(#SVGID_4_);}
	.st4{fill:#ECEFF1;}
	.st5{opacity:0.1;fill:#212121;}
	.st6{opacity:0.4;fill:#FFFFFF;}
	.st7{fill:url(#SVGID_5_);}
	.st8{fill:url(#SVGID_6_);}
	.st9{fill-rule:evenodd;clip-rule:evenodd;fill:#181616;}
	.st10{fill:#181616;}
	.st11{display:none;}
	.st12{display:inline;}
</style><g><symbol id="material_x5F_product_x5F_icon_x5F_grid" viewBox="0 -192 192 192"><g><defs><polygon id="SVGID_1_" points="192,-192 0,-192 0,0 192,0      "/></defs><clipPath id="SVGID_2_"><use style="overflow:visible;" xlink:href="#SVGID_1_"/></clipPath><g class="st0"><g><line class="st1" x1="4" x2="4" y1="-192" y2="0"/><line class="st1" x1="8" x2="8" y1="-192" y2="0"/><line class="st1" x1="12" x2="12" y1="-192" y2="0"/><line class="st1" x1="16" x2="16" y1="-192" y2="0"/><line class="st1" x1="20" x2="20" y1="-192" y2="0"/><line class="st1" x1="24" x2="24" y1="-192" y2="0"/><line class="st1" x1="28" x2="28" y1="-192" y2="0"/><line class="st1" x1="32" x2="32" y1="-192" y2="0"/><line class="st1" x1="36" x2="36" y1="-192" y2="0"/><line class="st1" x1="40" x2="40" y1="-192" y2="0"/><line class="st1" x1="44" x2="44" y1="-192" y2="0"/><line class="st1" x1="48" x2="48" y1="-192" y2="0"/><line class="st1" x1="52" x2="52" y1="-192" y2="0"/><line class="st1" x1="56" x2="56" y1="-192" y2="0"/><line class="st1" x1="60" x2="60" y1="-192" y2="0"/><line class="st1" x1="64" x2="64" y1="-192" y2="0"/><line class="st1" x1="68" x2="68" y1="-192" y2="0"/><line class="st1" x1="72" x2="72" y1="-192" y2="0"/><line class="st1" x1="76" x2="76" y1="-192" y2="0"/><line class="st1" x1="80" x2="80" y1="-192" y2="0"/><line class="st1" x1="84" x2="84" y1="-192" y2="0"/><line class="st1" x1="88" x2="88" y1="-192" y2="0"/><line class="st1" x1="92" x2="92" y1="-192" y2="0"/><line class="st1" x1="96" x2="96" y1="-192" y2="0"/><line class="st1" x1="100" x2="100" y1="-192" y2="0"/><line class="st1" x1="104" x2="104" y1="-192" y2="0"/><line class="st1" x1="108" x2="108" y1="-192" y2="0"/><line class="st1" x1="112" x2="112" y1="-192" y2="0"/><line class="st1" x1="116" x2="116" y1="-192" y2="0"/><line class="st1" x1="120" x2="120" y1="-192" y2="0"/><line class="st1" x1="124" x2="124" y1="-192" y2="0"/><line class="st1" x1="128" x2="128" y1="-192" y2="0"/><line class="st1" x1="132" x2="132" y1="-192" y2="0"/><line class="st1" x1="136" x2="136" y1="-192" y2="0"/><line class="st1" x1="140" x2="140" y1="-192" y2="0"/><line class="st1" x1="144" x2="144" y1="-192" y2="0"/><line class="st1" x1="148" x2="148" y1="-192" y2="0"/><line class="st1" x1="152" x2="152" y1="-192" y2="0"/><line class="st1" x1="156" x2="156" y1="-192" y2="0"/><line class="st1" x1="160" x2="160" y1="-192" y2="0"/><line class="st1" x1="164" x2="164" y1="-192" y2="0"/><line class="st1" x1="168" x2="168" y1="-192" y2="0"/><line class="st1" x1="172" x2="172" y1="-192" y2="0"/><line class="st1" x1="176" x2="176" y1="-192" y2="0"/><line class="st1" x1="180" x2="180" y1="-192" y2="0"/><line class="st1" x1="184" x2="184" y1="-192" y2="0"/><line class="st1" x1="188" x2="188" y1="-192" y2="0"/></g><g><line class="st1" x1="0" x2="192" y1="-4" y2="-4"/><line class="st1" x1="0" x2="192" y1="-8" y2="-8"/><line class="st1" x1="0" x2="192" y1="-12" y2="-12"/><line class="st1" x1="0" x2="192" y1="-16" y2="-16"/><line class="st1" x1="0" x2="192" y1="-20" y2="-20"/><line class="st1" x1="0" x2="192" y1="-24" y2="-24"/><line class="st1" x1="0" x2="192" y1="-28" y2="-28"/><line class="st1" x1="0" x2="192" y1="-32" y2="-32"/><line class="st1" x1="0" x2="192" y1="-36" y2="-36"/><line class="st1" x1="0" x2="192" y1="-40" y2="-40"/><line class="st1" x1="0" x2="192" y1="-44" y2="-44"/><line class="st1" x1="0" x2="192" y1="-48" y2="-48"/><line class="st1" x1="0" x2="192" y1="-52" y2="-52"/><line class="st1" x1="0" x2="192" y1="-56" y2="-56"/><line class="st1" x1="0" x2="192" y1="-60" y2="-60"/><line class="st1" x1="0" x2="192" y1="-64" y2="-64"/><line class="st1" x1="0" x2="192" y1="-68" y2="-68"/><line class="st1" x1="0" x2="192" y1="-72" y2="-72"/><line class="st1" x1="0" x2="192" y1="-76" y2="-76"/><line class="st1" x1="0" x2="192" y1="-80" y2="-80"/><line class="st1" x1="0" x2="192" y1="-84" y2="-84"/><line class="st1" x1="0" x2="192" y1="-88" y2="-88"/><line class="st1" x1="0" x2="192" y1="-92" y2="-92"/><line class="st1" x1="0" x2="192" y1="-96" y2="-96"/><line class="st1" x1="0" x2="192" y1="-100" y2="-100"/><line class="st1" x1="0" x2="192" y1="-104" y2="-104"/><line class="st1" x1="0" x2="192" y1="-108" y2="-108"/><line class="st1" x1="0" x2="192" y1="-112" y2="-112"/><line class="st1" x1="0" x2="192" y1="-116" y2="-116"/><line class="st1" x1="0" x2="192" y1="-120" y2="-120"/><line class="st1" x1="0" x2="192" y1="-124" y2="-124"/><line class="st1" x1="0" x2="192" y1="-128" y2="-128"/><line class="st1" x1="0" x2="192" y1="-132" y2="-132"/><line class="st1" x1="0" x2="192" y1="-136" y2="-136"/><line class="st1" x1="0" x2="192" y1="-140" y2="-140"/><line class="st1" x1="0" x2="192" y1="-144" y2="-144"/><line class="st1" x1="0" x2="192" y1="-148" y2="-148"/><line class="st1" x1="0" x2="192" y1="-152" y2="-152"/><line class="st1" x1="0" x2="192" y1="-156" y2="-156"/><line class="st1" x1="0" x2="192" y1="-160" y2="-160"/><line class="st1" x1="0" x2="192" y1="-164" y2="-164"/><line class="st1" x1="0" x2="192" y1="-168" y2="-168"/><line class="st1" x1="0" x2="192" y1="-172" y2="-172"/><line class="st1" x1="0" x2="192" y1="-176" y2="-176"/><line class="st1" x1="0" x2="192" y1="-180" y2="-180"/><line class="st1" x1="0" x2="192" y1="-184" y2="-184"/><line class="st1" x1="0" x2="192" y1="-188" y2="-188"/></g><g><path d="M191.8-0.3v-191.5H0.2V-0.3H191.8 M192,0H0v-192h192V0L192,0z"/></g></g></g></symbol><symbol id="material_x5F_product_x5F_icon_x5F_keylines" viewBox="0 -192 192 192"><g class="st2"><defs><path class="st2" d="M0,0v-192h192V0H0z" id="SVGID_3_"/></defs><clipPath id="SVGID_4_"><use style="overflow:visible;" xlink:href="#SVGID_3_"/></clipPath><g class="st3"><line class="st1" x1="0.2" x2="191.7" y1="-0.2" y2="-191.7"/><g><path d="M191.8-0.2v-191.5H0.2V-0.2H191.8 M192,0H0v-192h192V0L192,0z"/></g><line class="st1" x1="191.7" x2="0.2" y1="-0.2" y2="-191.7"/><line class="st1" x1="124" x2="124" y1="0" y2="-192"/><line class="st1" x1="68" x2="68" y1="0" y2="-192"/><line class="st1" x1="192" x2="0" y1="-124" y2="-124"/><line class="st1" x1="192" x2="0" y1="-68" y2="-68"/><path class="st1" d="M136-96c0-22.1-17.9-40-40-40c-22.1,0-40,17.9-40,40c0,22.1,17.9,40,40,40C118.1-56,136-73.9,136-96z"/><line class="st1" x1="0" x2="192" y1="-96" y2="-96"/><line class="st1" x1="96" x2="96" y1="0" y2="-192"/></g><g class="st3"><g><path d="M96-8.2c48.4,0,87.8-39.4,87.8-87.8s-39.4-87.7-87.8-87.7S8.2-144.4,8.2-96S47.6-8.2,96-8.2 M96-8C47.4-8,8-47.4,8-96        s39.4-88,88-88c48.6,0,88,39.4,88,88S144.6-8,96-8L96-8z"/></g></g><g class="st3"><g><path d="M160-20.2c6.5,0,11.8-5.3,11.8-11.8v-128c0-6.5-5.3-11.8-11.8-11.8H32c-6.5,0-11.8,5.3-11.8,11.8v128        c0,6.5,5.3,11.8,11.8,11.8H160 M160-20H32c-6.6,0-12-5.4-12-12v-128c0-6.6,5.4-12,12-12h128c6.6,0,12,5.4,12,12v128        C172-25.4,166.6-20,160-20L160-20z"/></g></g><g class="st3"><g><path d="M148-8.2c6.5,0,11.8-5.3,11.8-11.8v-152c0-6.5-5.3-11.8-11.8-11.8H44c-6.5,0-11.8,5.3-11.8,11.8v152        c0,6.5,5.3,11.8,11.8,11.8H148 M148-8H44c-6.6,0-12-5.4-12-12v-152c0-6.6,5.4-12,12-12h104c6.6,0,12,5.4,12,12v152        C160-13.4,154.6-8,148-8L148-8z"/></g></g><g class="st3"><g><path d="M172-32.2c6.5,0,11.8-5.3,11.8-11.8v-104c0-6.5-5.3-11.8-11.8-11.8H20c-6.5,0-11.8,5.3-11.8,11.8v104        c0,6.5,5.3,11.8,11.8,11.8H172 M172-32H20c-6.6,0-12-5.4-12-12v-104c0-6.6,5.4-12,12-12h152c6.6,0,12,5.4,12,12v104        C184-37.4,178.6-32,172-32L172-32z"/></g></g></g></symbol><g id="Round_Template"><circle class="st4" cx="96" cy="96" r="88"/><path class="st5" d="M96,183c-48.4,0-87.7-39.1-88-87.5c0,0.2,0,0.3,0,0.5c0,48.6,39.4,88,88,88s88-39.4,88-88c0-0.2,0-0.3,0-0.5     C183.7,143.9,144.4,183,96,183z"/><path class="st6" d="M96,9c48.4,0,87.7,39.1,88,87.5c0-0.2,0-0.3,0-0.5c0-48.6-39.4-88-88-88S8,47.4,8,96c0,0.2,0,0.3,0,0.5     C8.3,48.1,47.6,9,96,9z"/><radialGradient cx="27.8861" cy="41.0391" gradientUnits="userSpaceOnUse" id="SVGID_5_" r="87.3019"><stop offset="0" style="stop-color:#FFFFFF;stop-opacity:0.1"/><stop offset="1" style="stop-color:#FFFFFF;stop-opacity:0"/></radialGradient><circle class="st7" cx="96" cy="96" r="88"/></g><g id="ICON"><linearGradient gradientUnits="userSpaceOnUse" id="SVGID_6_" x1="50.7456" x2="157.4351" y1="52.3262" y2="159.0157"><stop offset="0" style="stop-color:#212121;stop-opacity:0.2"/><stop offset="1" style="stop-color:#212121;stop-opacity:0"/></linearGradient><path class="st8" d="M141.6,52.7C130,40.9,113.9,33.6,96,33.6c-35.3,0-64,28.7-64,64c0,17.9,7.3,34,19.1,45.6     c0.3,0.3,0.5,0.5,0.8,0.8c0.3,0.3,39.8,39.8,39.9,39.9c1.4,0.1,2.8,0.1,4.2,0.1c48.6,0,88-39.4,88-88c0-0.3,0-0.6,0-0.9     C183.9,95,141.9,53,141.6,52.7z"/><path class="st9" d="M96,33.6c-35.3,0-64,28.7-64,64c0,28.3,18.3,52.3,43.8,60.7c3.2,0.6,4.4-1.4,4.4-3.1c0-1.5-0.1-6.6-0.1-11.9     c-17.8,3.9-21.6-7.6-21.6-7.6c-2.9-7.4-7.1-9.4-7.1-9.4c-5.8-4,0.4-3.9,0.4-3.9c6.4,0.5,9.8,6.6,9.8,6.6c5.7,9.8,15,7,18.6,5.3     c0.6-4.1,2.2-7,4.1-8.6c-14.2-1.6-29.2-7.1-29.2-31.6c0-7,2.5-12.7,6.6-17.2c-0.7-1.6-2.9-8.1,0.6-16.9c0,0,5.4-1.7,17.6,6.6     c5.1-1.4,10.6-2.1,16-2.2c5.4,0,10.9,0.7,16,2.2c12.2-8.3,17.6-6.6,17.6-6.6c3.5,8.8,1.3,15.3,0.6,16.9     c4.1,4.5,6.6,10.2,6.6,17.2c0,24.6-15,30-29.2,31.6c2.3,2,4.3,5.9,4.3,11.9c0,8.6-0.1,15.5-0.1,17.6c0,1.7,1.2,3.7,4.4,3.1     c25.4-8.5,43.7-32.5,43.7-60.7C160,62.2,131.3,33.6,96,33.6z"/><path class="st10" d="M56.2,125.5c-0.1,0.3-0.6,0.4-1.1,0.2c-0.5-0.2-0.7-0.6-0.6-1c0.1-0.3,0.6-0.4,1.1-0.2     C56.1,124.7,56.4,125.2,56.2,125.5L56.2,125.5z M55.5,124.9"/><path class="st10" d="M58.8,128.4c-0.3,0.3-0.9,0.2-1.3-0.3c-0.4-0.4-0.5-1-0.2-1.3c0.3-0.3,0.9-0.2,1.3,0.3     C59.1,127.5,59.2,128.1,58.8,128.4L58.8,128.4z M58.2,127.7"/><path class="st10" d="M61.4,132c-0.4,0.3-1,0-1.4-0.6c-0.4-0.6-0.4-1.3,0-1.5c0.4-0.3,1,0,1.4,0.5     C61.8,131.1,61.8,131.8,61.4,132L61.4,132z M61.4,132"/><path class="st10" d="M64.8,135.6c-0.4,0.4-1.1,0.3-1.6-0.2c-0.6-0.5-0.7-1.2-0.4-1.6c0.4-0.4,1.1-0.3,1.7,0.2     C65,134.5,65.2,135.2,64.8,135.6L64.8,135.6z M64.8,135.6"/><path class="st10" d="M69.6,137.7c-0.2,0.5-0.9,0.7-1.6,0.5c-0.7-0.2-1.2-0.8-1.1-1.3c0.2-0.5,0.9-0.7,1.6-0.5     C69.3,136.6,69.7,137.2,69.6,137.7L69.6,137.7z M69.6,137.7"/><path class="st10" d="M74.8,138.1c0,0.5-0.6,1-1.4,1c-0.8,0-1.4-0.4-1.4-0.9c0-0.5,0.6-1,1.4-1C74.2,137.1,74.8,137.5,74.8,138.1     L74.8,138.1z M74.8,138.1"/><path class="st10" d="M79.7,137.2c0.1,0.5-0.4,1-1.2,1.2c-0.7,0.1-1.4-0.2-1.5-0.7c-0.1-0.5,0.4-1.1,1.2-1.2     C78.9,136.4,79.6,136.7,79.7,137.2L79.7,137.2z M79.7,137.2"/></g><g class="st11" id="grid"><use height="192" id="XMLID_1_" style="display:inline;overflow:visible;opacity:0.15;" transform="matrix(1 0 0 -1 0 0)" width="192" xlink:href="#material_x5F_product_x5F_icon_x5F_grid" y="-192"/><g class="st12" id="keylines"><use height="192" id="XMLID_2_" style="overflow:visible;" transform="matrix(1 0 0 -1 0 0)" width="192" x="0" xlink:href="#material_x5F_product_x5F_icon_x5F_keylines" y="-192"/></g></g></g></svg>