<?xml version="1.0" ?><!DOCTYPE svg  PUBLIC '-//W3C//DTD SVG 1.1//EN'  'http://www.w3.org/Graphics/SVG/1.1/DTD/svg11.dtd'><svg enable-background="new 0 0 512 512" height="512px" id="Layer_1" version="1.1" viewBox="0 0 512 512" width="512px" xml:space="preserve" xmlns="http://www.w3.org/2000/svg" xmlns:xlink="http://www.w3.org/1999/xlink"><g><linearGradient gradientTransform="matrix(1 0 0 -1 -41.66 349.04)" gradientUnits="userSpaceOnUse" id="SVGID_1_" x1="310.7322" x2="311.118" y1="129.4306" y2="129.0446"><stop offset="0" style="stop-color:#517FA6"/><stop offset="1" style="stop-color:#426699"/></linearGradient><path d="M269.34,219.956v-0.465c-0.089,0.15-0.219,0.319-0.308,0.465H269.34z" fill="url(#SVGID_1_)"/><linearGradient gradientTransform="matrix(1 0 0 -1 -41.66 349.04)" gradientUnits="userSpaceOnUse" id="SVGID_2_" x1="-3.2505" x2="604.272" y1="393.9504" y2="-213.5719"><stop offset="0" style="stop-color:#517FA6"/><stop offset="1" style="stop-color:#426699"/></linearGradient><path d="M348.489,35.511H163.51c-70.692,0-128,57.308-128,128v184.978c0,70.692,57.308,128,128,128h184.979   c39.172,0,74.229-17.603,97.708-45.323l0,0c18.893-22.305,30.292-51.157,30.292-82.677V163.511   C476.489,92.818,419.181,35.511,348.489,35.511z M195.279,342.592h-47.678V199.163h47.678V342.592z M171.449,179.589h-0.322   c-15.997,0-26.358-11.025-26.358-24.797c0-14.073,10.676-24.776,26.987-24.776c16.318,0,26.351,10.703,26.666,24.776   C198.423,168.565,188.075,179.589,171.449,179.589z M367.229,342.594h-47.678v-76.738c0-19.275-6.903-32.434-24.158-32.434   c-13.177,0-21.017,8.866-24.471,17.44c-1.258,3.068-1.58,7.332-1.58,11.626v80.103h-47.685c0,0,0.636-129.969,0-143.429h47.683   v20.328c6.333-9.757,17.652-23.7,42.979-23.7c31.385,0,54.907,20.497,54.91,64.553L367.229,342.594L367.229,342.594z" fill="url(#SVGID_2_)"/></g></svg>